<?xml version="1.0" encoding="utf-8"?>
<!-- Generator: Adobe Illustrator 23.0.6, SVG Export Plug-In . SVG Version: 6.00 Build 0)  -->
<svg version="1.1" id="Calque_1" xmlns="http://www.w3.org/2000/svg" xmlns:xlink="http://www.w3.org/1999/xlink" x="0px" y="0px"
	 viewBox="0 0 32 32" style="enable-background:new 0 0 32 32;" xml:space="preserve">
<style type="text/css">
	.st0{fill:#282828;}
	.st1{clip-path:url(#SVGID_2_);}
	.st2{fill:#FFFFFF;}
</style>
<title>bitdegree</title>
<circle class="st0" cx="16" cy="16" r="16"/>
<g>
	<defs>
		<path id="SVGID_1_" d="M13.6,16h3.1c0.6,0,1,0.1,1.3,0.4c0.6,0.6,0.6,1.5,0,2.1c0,0,0,0,0,0c-0.3,0.3-0.7,0.4-1.4,0.4h-3.1V16z
			 M13.6,11.3h3c0.6,0,1,0.1,1.3,0.3c0.3,0.2,0.4,0.5,0.4,1c0,0.4-0.1,0.7-0.4,1c-0.3,0.2-0.7,0.3-1.3,0.3h-3L13.6,11.3z M8.6,6.6
			h14.7v15.2L16,26.7l-7.4-4.9V16h2.6v4.5c0,0.1,0,0.2,0.1,0.3c0.1,0.1,0.2,0.1,0.3,0.1h5.4c0.5,0,1.1-0.1,1.6-0.3
			c0.4-0.2,0.8-0.5,1.1-0.8c0.3-0.3,0.5-0.7,0.7-1.1c0.2-0.4,0.2-0.8,0.2-1.3c0-0.7-0.1-1.2-0.4-1.6c-0.3-0.4-0.6-0.7-1-1
			c0.1-0.1,0.2-0.2,0.3-0.3c0.1-0.1,0.3-0.3,0.4-0.5c0.1-0.2,0.3-0.4,0.3-0.7c0.1-0.3,0.1-0.6,0.1-0.9c0-0.4-0.1-0.7-0.2-1.1
			c-0.1-0.4-0.4-0.8-0.6-1.1c-0.3-0.4-0.7-0.6-1.2-0.8c-0.5-0.2-1.1-0.3-1.8-0.3h-5c-0.2,0-0.5,0.2-0.5,0.5v4.2H8.6L8.6,6.6z
			 M6.5,4.5v18.4l9.5,6.3l9.5-6.3V4.5H6.5z"/>
	</defs>
	<clipPath id="SVGID_2_">
		<use xlink:href="#SVGID_1_"  style="overflow:visible;"/>
	</clipPath>
	<g class="st1">
		<path class="st2" d="M5.7,3.6h20.7v26.5H5.7V3.6z"/>
	</g>
</g>
</svg>
