<?xml version="1.0" encoding="utf-8"?>
<!-- Generator: Adobe Illustrator 23.0.6, SVG Export Plug-In . SVG Version: 6.00 Build 0)  -->
<svg version="1.1" id="Calque_1" xmlns="http://www.w3.org/2000/svg" xmlns:xlink="http://www.w3.org/1999/xlink" x="0px" y="0px"
	 viewBox="0 0 32 32" style="enable-background:new 0 0 32 32;" xml:space="preserve">
<style type="text/css">
	.st0{fill:#282828;}
</style>
<title>codewars</title>
<path class="st0" d="M0.9,16.3H0.8c-0.2-0.1-0.4-0.3-0.6-0.6C0.1,15.4,0,15,0,14.7v-0.2c0-0.3,0.1-0.5,0.2-0.7l0.1-0.2
	c0.1-0.1,0.1-0.2,0.2-0.3c0.1-0.1,0.1-0.2,0-0.3v-0.2c-0.1-0.3-0.1-0.5-0.1-0.8v-0.2c0-0.3,0.1-0.6,0.3-0.8l0.1-0.2
	c0.1-0.1,0.2-0.2,0.4-0.3c0.1-0.1,0.2-0.2,0.2-0.3V9.7c0-0.4,0.2-0.7,0.4-0.9l0.3-0.2c0.1-0.1,0.1-0.2,0.2-0.2c0-0.1,0-0.2,0-0.3
	c0-0.1,0-0.2,0.1-0.2c0.1,0,0.3,0,0.4,0l0.2-0.2L3.5,7c0.1-0.2,0.2-0.4,0.1-0.6L3.5,6.1c0-0.1,0-0.1,0-0.2C3.6,5.8,3.8,5.8,4,6v0.1
	C4,6.2,4.2,6.3,4.4,6.3c0.2-0.1,0.5-0.1,0.8-0.1h0.4c0.3,0,0.6-0.2,0.6-0.5C6.2,5.3,6.4,5,6.6,4.7c0.2-0.2,0.4-0.4,0.7-0.5
	C7.7,4,7.9,3.7,8,3.4C8.1,3,8.3,2.7,8.6,2.4l1-0.6l0.3-0.2c0.2-0.1,0.3-0.2,0.5-0.4L10.7,1c0.1-0.1,0.3-0.2,0.4-0.3
	c0.2,0,0.3,0,0.5,0h0.5c0.2,0,0.5,0.1,0.7,0.2L13,0.9c0.1,0,0.2,0,0.3-0.1l0.1-0.1l0.6-0.6C14.1,0,14.2,0,14.4,0
	c0.2,0,0.4,0.1,0.5,0.2c0.2,0.1,0.4,0.2,0.7,0.2h0.1c0.3,0,0.6,0,0.9,0.1h0.2c0.2,0.1,0.4,0,0.6-0.1c0-0.1,0.1-0.1,0.2,0
	c0,0,0,0,0,0c0,0,0.1,0.1,0.1,0.1c0,0.2,0.2,0.5,0.4,0.5L18.3,1c0.2,0.1,0.4,0.2,0.6,0.4C19,1.7,19.1,1.8,19.3,2l0.1,0.1
	c0.1,0.1,0.3,0.2,0.5,0.2h0.8c0.3,0,0.6,0.1,0.9,0.2c0.3,0.1,0.6,0.1,0.9,0c0.3-0.1,0.6-0.1,0.9-0.1l0.6,0.1c0.3,0,0.5,0.2,0.7,0.4
	l0.1,0.1c0.1,0.2,0.3,0.3,0.4,0.5c0.1,0.2,0.3,0.3,0.5,0.3h0.8c0.2,0,0.4,0,0.6,0.1c0.2,0.1,0.3,0.3,0.5,0.4l0.1,0.2
	c0.2,0.2,0.2,0.5,0.2,0.7c0,0.2,0.2,0.4,0.4,0.4c0,0,0,0,0,0h0.3c0.2,0,0.4,0.1,0.4,0.3l0.1,0.3l0.3,0.8c0,0.1,0,0.3,0,0.4
	c0,0.1,0,0.2,0.1,0.3l0.1,0.1C29.9,7.8,30,8,30,8.2l-0.1,0.6v0.3c0,0.2,0,0.3,0.2,0.4c0.2,0.1,0.3,0.3,0.3,0.5v0.3
	c0,0.1,0,0.3-0.1,0.4c-0.1,0.1-0.1,0.3-0.1,0.4v0.3c0,0.2,0.1,0.4,0.3,0.5c0.2,0.1,0.3,0.3,0.3,0.6c0,0.3,0,0.6,0,0.9v0.3
	c0,0.1,0,0.2,0,0.3c0,0.1,0.1,0.2,0.2,0.2l0.3,0.2c0.3,0.2,0.5,0.4,0.6,0.7c0.1,0.3,0.2,0.6,0.2,0.9v0.1c0,0.2,0,0.5-0.1,0.7
	c-0.1,0.2-0.1,0.5,0,0.7c0.1,0.2,0.2,0.4,0.2,0.6c0.1,0.3,0,0.5-0.1,0.8v0.1c-0.1,0.2-0.2,0.3-0.3,0.4c-0.1,0.1-0.3,0.2-0.3,0.3
	c-0.1,0.1-0.1,0.2-0.1,0.3v0.2c0.1,0.3,0.1,0.5,0,0.8v0.1c-0.1,0.2-0.1,0.4-0.2,0.5c-0.1,0.2-0.2,0.3-0.4,0.4l-0.2,0.1
	c-0.1,0.1-0.2,0.2-0.2,0.3c0,0.1,0,0.3-0.1,0.4l-0.2,0.3c-0.1,0.2-0.3,0.3-0.5,0.4c-0.2,0.1-0.3,0.3-0.5,0.4
	c-0.1,0.2-0.2,0.3-0.3,0.5c0,0.2-0.2,0.4-0.4,0.4h-0.7c-0.2,0-0.4,0.1-0.4,0.3c-0.1,0.2-0.2,0.4-0.3,0.5c-0.1,0.1-0.2,0.3-0.3,0.5
	c0,0.2-0.2,0.3-0.3,0.2c-0.2-0.1-0.3,0-0.4,0.1c-0.1,0.2-0.3,0.5-0.5,0.6l-0.1,0.1c-0.2,0.1-0.4,0.2-0.6,0.2c-0.2,0-0.4,0.1-0.4,0.3
	c0,0.1-0.1,0.3-0.1,0.5c0,0.2-0.1,0.3-0.1,0.4l-0.1,0.1c-0.1,0.2-0.2,0.4-0.4,0.6v0.1c-0.2,0.2-0.4,0.4-0.7,0.5
	c-0.3,0.1-0.6,0.1-0.9,0.1h-0.2c-0.1,0-0.3,0.1-0.4,0.2l-0.1,0.1l-0.1,0.2L21,30.9c-0.1,0.2-0.3,0.4-0.6,0.5
	c-0.3,0.1-0.6,0.1-0.9,0.1h-0.2c-0.2,0-0.4-0.1-0.5-0.1c-0.1-0.1-0.3,0-0.4,0.1c-0.1,0.2-0.3,0.3-0.5,0.4L17.5,32
	c-0.3,0.1-0.6,0.1-0.8,0l-0.2-0.1c-0.1,0-0.3-0.1-0.4-0.1c-0.1-0.1-0.3-0.1-0.4-0.1h-0.2c-0.3,0-0.5,0-0.8-0.1l-0.4-0.1
	c-0.2-0.1-0.3-0.2-0.4-0.3c-0.1-0.2-0.2-0.3-0.4-0.3h-0.3c-0.3,0-0.5-0.1-0.7-0.3L12,30.1L11.8,30l-0.3-0.2l-0.2-0.1
	c-0.2-0.1-0.4-0.2-0.7-0.3l-0.8-0.1c-0.1,0-0.1,0-0.2,0l-0.3-0.1c-0.1,0-0.3-0.1-0.4-0.3c-0.1-0.1-0.2-0.2-0.4-0.1
	c-0.2,0.1-0.5,0.1-0.7,0.2H7.7c-0.3,0-0.7,0-1-0.2c-0.3-0.1-0.6-0.3-0.7-0.6c-0.2-0.2-0.4-0.4-0.7-0.5l-0.4-0.1
	c-0.3-0.1-0.5-0.2-0.8-0.3c-0.2-0.1-0.4-0.3-0.5-0.6c-0.1-0.2-0.2-0.4-0.2-0.7v-0.1c0-0.3-0.2-0.5-0.5-0.6c-0.3-0.1-0.5-0.2-0.7-0.4
	c-0.2-0.2-0.3-0.4-0.3-0.7v-0.6c0-0.2-0.1-0.4-0.2-0.6c-0.2-0.1-0.3-0.4-0.3-0.6V22c0-0.4-0.1-0.7-0.2-1.1c-0.1-0.3,0-0.6,0.3-0.8
	L1.6,20c0.1-0.1,0.2-0.3,0.1-0.4l-0.1-0.1c-0.1-0.1-0.2-0.2-0.4-0.3c-0.1,0-0.1-0.1-0.1-0.2l0.1-0.2c0.1-0.1,0.1-0.2,0-0.3
	c-0.1-0.1-0.2-0.2-0.2-0.4v-0.9c0-0.2,0-0.4,0.1-0.6C1.2,16.5,1.1,16.3,0.9,16.3L0.9,16.3z M14.3,14.5c0.1-0.1,0.1-0.2,0-0.3
	c-0.1-0.1-0.2-0.2-0.3-0.4l-0.1-0.2c-0.1-0.2-0.2-0.3-0.3-0.5l0,0c-0.1-0.1-0.2-0.2-0.3-0.4c-0.1-0.1-0.1-0.3,0-0.4l0.1-0.1
	c0.1-0.1,0.1-0.3,0.1-0.5l0,0c0-0.1-0.1-0.3-0.1-0.4c-0.1-0.1-0.1-0.2-0.1-0.4v-0.2c0-0.2,0-0.3,0.1-0.5c0.1-0.2,0.2-0.3,0.2-0.5
	l0,0c0.1-0.2,0-0.3-0.1-0.5c-0.1-0.1-0.1-0.3,0-0.4l0.1-0.3c0.1-0.2,0.2-0.5,0.3-0.6l0.2-0.2l0.1-0.2l0.1-0.1c0.1-0.1,0.1-0.2,0-0.3
	c-0.1-0.1-0.1-0.3-0.1-0.4V6.6c0-0.3,0.1-0.5,0.3-0.8l0,0c0.2-0.3,0.5-0.5,0.9-0.6l0.4-0.1c0.2-0.1,0.3-0.2,0.3-0.4
	c0-0.2,0.1-0.4,0.2-0.6L16.1,4c0.1-0.2,0.3-0.5,0.4-0.7l0.1-0.2c0,0,0-0.1,0-0.1c0.1-0.2-0.1-0.4-0.3-0.5h-0.6c-0.3,0-0.7,0-1,0
	l-1.1,0.1c-0.2,0-0.3,0.1-0.3,0.3c0,0.2-0.1,0.3-0.3,0.4l-0.5,0.1h-0.1L12,3.7c-0.3,0.1-0.5,0.3-0.7,0.6l-0.1,0.2
	C11,4.8,10.8,5,10.5,5.2c-0.3,0.2-0.4,0.5-0.4,0.8v0.1c0,0.3-0.1,0.5-0.3,0.7V7C9.7,7.1,9.7,7.3,9.8,7.4c0,0.2,0.1,0.3,0,0.5v0.7
	C9.8,8.8,9.7,9,9.5,9C9.3,9.1,9.2,9.3,9.2,9.4v0.3c-0.1,0.3,0,0.5,0.3,0.7c0.2,0.2,0.4,0.4,0.4,0.7v0.2c0,0.3,0.2,0.5,0.4,0.7
	c0.2,0.2,0.4,0.4,0.5,0.7l0.1,0.2c0.1,0.3,0.3,0.5,0.6,0.5h0.1c0.2,0,0.5,0.1,0.6,0.4c0.1,0.2,0.3,0.4,0.6,0.4l0.4,0.1
	c0.2,0.1,0.4,0.2,0.6,0.4l0,0c0.1,0.1,0.3,0.1,0.5,0L14.3,14.5L14.3,14.5z M15.8,13.3c0.1,0,0.2,0,0.3-0.1v-0.1
	c0.1-0.2,0.2-0.4,0.3-0.5l0.3-0.4c0,0,0,0,0.1,0l0.3-0.4c0.1-0.1,0.3-0.2,0.5-0.2c0.2,0,0.3-0.1,0.4-0.3c0.1-0.2,0.2-0.5,0.4-0.6
	h0.1c0.1-0.1,0.3-0.2,0.4-0.3c0.2,0,0.3,0,0.5,0h0.4c0.2,0,0.3-0.1,0.4-0.3c0.1-0.1,0.2-0.2,0.3-0.3h0.1c0.2-0.1,0.5-0.2,0.7-0.2
	h0.3c0.2,0,0.3,0,0.5,0.1c0.1,0.1,0.3,0.1,0.4,0h0.1c0.2-0.1,0.4-0.2,0.7-0.3l0,0c0.3,0,0.5,0,0.8,0h0.1c0.3,0,0.5,0.1,0.7,0.3l0,0
	c0.1,0.1,0.3,0.2,0.5,0.2h0.2c0.1,0,0.1,0,0.2-0.1c0,0,0.1-0.1,0.2-0.1H26c0.2,0,0.4,0,0.5,0.1l0.2,0.1c0.2,0.1,0.4,0.1,0.7,0.2h0.2
	c0.1,0,0.2-0.1,0.2-0.1c0,0,0,0,0,0c0-0.1,0-0.3-0.1-0.4l0-0.4c-0.1-0.2-0.2-0.4-0.3-0.5l0,0c-0.1-0.1-0.1-0.3,0-0.4l0,0
	c0-0.1,0-0.2-0.1-0.3h-0.1C27,8,26.8,7.9,26.7,7.7l-0.1-0.1c-0.1-0.2-0.2-0.3-0.3-0.5c-0.1-0.2-0.2-0.3-0.4-0.3h-0.6
	c-0.2,0-0.4-0.1-0.5-0.3l0,0c-0.1-0.1-0.2-0.3-0.2-0.5c0.1-0.2,0-0.3-0.2-0.4c-0.1,0-0.2,0-0.3,0H24c-0.3,0.1-0.5,0.1-0.8,0.1h-0.2
	c-0.2,0-0.4-0.1-0.6-0.2l-0.1-0.1c-0.1-0.1-0.2-0.1-0.3-0.1c-0.1-0.1-0.2,0-0.3,0.1l-0.1,0.1c-0.1,0.1-0.3,0.2-0.5,0.3h-0.7
	c-0.1,0-0.3,0.1-0.4,0.2c-0.1,0.1-0.2,0.2-0.4,0.2l0,0c-0.1,0-0.3,0.1-0.4,0.2l0,0c-0.1,0.1-0.3,0.2-0.5,0.2l0,0c-0.2,0-0.3,0-0.5,0
	h-0.2c-0.2,0.1-0.4,0.2-0.5,0.5v0.3c0,0.2-0.1,0.4-0.3,0.6C17.1,7.9,16.9,8,16.7,8h-0.2c-0.2,0-0.3,0.2-0.2,0.3c0,0.2,0,0.4,0,0.6
	l-0.2,0.3c0,0.2-0.2,0.4-0.4,0.4h-0.1l0,0c-0.1,0.1-0.1,0.2-0.1,0.3c0.1,0.1,0.1,0.3,0.1,0.4v0.4c0,0.2-0.1,0.3-0.1,0.4
	c-0.1,0.1-0.1,0.3,0,0.4l0.1,0.3c0.1,0.1,0.1,0.3,0,0.4c0,0.1,0,0.3,0,0.4c0,0.1,0.1,0.3,0.2,0.3l0,0L15.8,13.3z M26.4,23
	c0.1,0.1,0.3,0.2,0.5,0.1l0.3-0.2c0.1-0.1,0.2-0.2,0.3-0.4l0,0l0.1-0.4l0.1-0.1v-0.1v-0.1c0.1-0.1,0.1-0.2,0.3-0.2l0,0
	c0.1,0,0.2-0.1,0.2-0.2c0-0.1,0.1-0.2,0.1-0.3l0.1-0.1l0.3-0.4l0,0c0.2-0.1,0.3-0.3,0.3-0.5c0-0.1,0-0.3,0-0.4l0,0
	c0-0.1-0.1-0.2-0.1-0.4v-0.4v-0.4c0-0.1,0.1-0.3,0.1-0.4c0.1-0.1,0.2-0.2,0.2-0.4l0,0l0,0c0-0.1,0-0.3-0.2-0.3
	c-0.1-0.1-0.3-0.2-0.3-0.3V17c-0.1-0.2-0.1-0.5-0.1-0.7v-0.7l0,0c0-0.2-0.2-0.4-0.4-0.4l0,0c-0.3,0-0.5-0.1-0.7-0.3l-0.1-0.1
	l-0.3-0.3l-0.3-0.4c-0.1-0.2-0.3-0.4-0.4-0.5c-0.1-0.2-0.3-0.3-0.5-0.3h-0.3c-0.2,0-0.3-0.1-0.5-0.2c-0.1-0.1-0.3-0.1-0.4,0
	l-0.2,0.2h-0.1c-0.1,0-0.2,0-0.2-0.1c-0.1-0.2-0.1-0.3,0-0.5v-0.2c0-0.1-0.1-0.1-0.1-0.1c0,0,0,0,0,0h-0.2c-0.2,0-0.5,0-0.7-0.1H23
	c-0.1-0.1-0.3-0.1-0.4-0.1c-0.1,0-0.3,0-0.4,0.1l0,0c-0.2,0.1-0.3,0.2-0.5,0.2h-0.4c-0.2,0-0.4,0.1-0.5,0.2
	c-0.2,0.1-0.4,0.2-0.6,0.2h-0.4c-0.2,0-0.3,0.1-0.5,0.2c-0.1,0.1-0.3,0.2-0.5,0.3l0,0c-0.2,0.1-0.4,0.2-0.5,0.4l-0.2,0.2
	c-0.1,0.1-0.1,0.3,0,0.4c0.1,0.1,0.3,0.2,0.4,0.1l0.2-0.1c0.1,0,0.2,0,0.3,0c0.1,0.1,0.2,0.1,0.3,0.1h0.3c0.2,0,0.4,0,0.6,0
	c0.2,0.1,0.4,0.1,0.5,0.3c0.2,0.1,0.3,0.2,0.5,0.2c0.2,0,0.4,0.1,0.6,0.1H22c0.1,0,0.3,0.1,0.3,0.3c0.1,0.1,0.1,0.3,0.1,0.4l0,0
	c0,0.1,0.1,0.3,0.3,0.3l0,0h0.1c0.2,0,0.5,0,0.7,0.1h0.1c0.1,0.1,0.3,0.1,0.4,0.3c0.1,0.1,0.2,0.3,0.2,0.4v0.2c0,0.2,0,0.4,0,0.6
	l0,0c0,0.1,0.1,0.3,0.2,0.3c0.2,0,0.3,0.1,0.4,0.2l0,0c0.2,0.1,0.3,0.2,0.5,0.4l0.1,0.1c0.2,0.2,0.3,0.5,0.3,0.7v0.1
	c0,0.2,0,0.4-0.1,0.6c-0.1,0.1,0,0.3,0.1,0.4c0,0,0,0,0,0h0.1c0.2,0.1,0.4,0.2,0.5,0.4c0.1,0.2,0.2,0.4,0.2,0.7v0.4
	c0,0.1-0.1,0.2-0.1,0.3c-0.1,0.1-0.1,0.2,0,0.3l0.1,0.1L26.4,23z M17.8,16.1L17.8,16.1c0,0-0.1,0,0,0.1v0.3c0,0.2,0.1,0.4,0.1,0.6
	c0,0.2,0.1,0.4,0.3,0.5l0,0c0.2,0.2,0.3,0.4,0.3,0.6v0.7c0,0.1,0,0.3,0.1,0.4l0.1,0.1c0.1,0.2,0.2,0.3,0.2,0.5v0.7
	c0,0.2-0.1,0.3-0.3,0.4h-0.1c-0.1,0-0.1,0.1-0.1,0.2c0,0.1,0,0.2,0.1,0.3l0,0c0,0.1,0,0.3,0,0.4v0.4c0,0.3-0.1,0.5-0.3,0.8l-0.1,0.2
	c-0.1,0.1-0.2,0.2-0.3,0.3c-0.1,0.1-0.2,0.2-0.3,0.3l-0.1,0.5c-0.1,0.3-0.2,0.6-0.3,0.8l0,0c-0.2,0.2-0.4,0.4-0.6,0.5l-0.2,0.1
	l-0.4,0.2c-0.1,0.1-0.2,0.2-0.2,0.3l-0.1,0.4c0,0.3-0.1,0.5-0.3,0.7l-0.2,0.2l-0.2,0.2l-0.2,0.2c-0.2,0.2-0.4,0.3-0.7,0.2l-0.5-0.1
	h-0.4H13c0,0.1,0,0.2,0,0.2c0.1,0.2,0.2,0.3,0.4,0.3h0.3c0.2,0,0.3,0.1,0.4,0.1c0.1,0.1,0.3,0.2,0.4,0.2l0,0
	c0.2,0.1,0.4,0.1,0.5,0.1h0.2c0.2,0,0.4,0,0.6,0.1h0.2c0.1,0,0.2,0,0.2-0.1c0.1-0.1,0.2-0.1,0.3-0.2h0.1c0.2-0.1,0.4-0.1,0.5-0.1
	h0.2c0.2,0,0.3,0,0.4,0.1l0,0c0.1,0,0.2,0,0.3-0.1c0.1-0.1,0.1-0.2,0.2-0.3l0.3-0.2l0.2-0.1H19c0.1-0.1,0.3-0.1,0.5-0.1H20
	c0.2,0,0.3-0.2,0.4-0.4c0.1-0.2,0.1-0.4,0.3-0.6c0.1-0.2,0.3-0.3,0.4-0.5c0.2-0.1,0.3-0.2,0.5-0.2h0.1c0.2,0,0.4-0.2,0.4-0.5v-0.9
	c0-0.2,0.1-0.3,0.2-0.4l0.3-0.4l0.1-0.1c0.1-0.1,0.2-0.2,0.2-0.3l0.1-0.2c0.1-0.1,0.1-0.3,0-0.4c-0.1-0.1-0.2-0.3-0.2-0.5l0,0
	c0-0.2,0-0.5,0-0.7l0,0c0.1-0.2,0.2-0.4,0.3-0.5c0.1-0.1,0.1-0.3,0-0.4c0,0,0,0,0,0l-0.2-0.4c-0.2-0.2-0.3-0.4-0.3-0.6v-0.3
	c0-0.1,0-0.2,0-0.3v-0.2c0-0.2-0.2-0.4-0.3-0.5H22c-0.2-0.1-0.3-0.2-0.4-0.4c-0.1-0.2-0.2-0.3-0.2-0.5v-0.2c0-0.1-0.1-0.1-0.1-0.2
	l-0.2-0.1l-0.6-0.2c-0.1,0-0.3-0.1-0.4-0.2l0,0c-0.1-0.1-0.2-0.1-0.3,0c0,0,0,0,0,0l-0.1,0.1c0,0,0,0-0.1,0c-0.1,0-0.1,0-0.1-0.1
	c0,0,0,0,0,0c0-0.2-0.1-0.4-0.2-0.6l-0.2-0.1l-0.4-0.3c-0.1,0-0.3,0-0.3,0.1v0.1l0,0c0,0-0.1,0-0.1-0.1l0,0c0-0.1-0.1-0.1-0.2-0.2
	L17.8,16.1z M16.2,17.5L16.2,17.5c0-0.1-0.1-0.1-0.2-0.1c0,0,0,0,0,0c-0.1,0.2-0.2,0.3-0.2,0.5l0,0c0,0.2-0.2,0.3-0.4,0.3h-0.2
	c-0.2,0-0.3,0.2-0.3,0.4c0,0.2-0.1,0.5-0.2,0.7l-0.1,0.1c-0.1,0.2-0.3,0.3-0.5,0.4H14c-0.1,0-0.2,0.2-0.3,0.3c0,0.1-0.1,0.3-0.2,0.4
	l-0.1,0.1c-0.2,0.2-0.4,0.3-0.6,0.3H12c-0.2,0-0.4,0.1-0.5,0.3c-0.1,0.2-0.3,0.3-0.5,0.4h-0.3c-0.2,0-0.4,0-0.7,0H9.9l-0.4-0.1
	c-0.1,0-0.2,0-0.3,0.1L9,21.7c-0.2,0.2-0.4,0.3-0.7,0.3l-0.9-0.1c-0.1,0-0.3-0.1-0.4-0.1c-0.1-0.1-0.2-0.2-0.3-0.3L6.4,21
	c-0.1,0-0.1,0-0.2,0l-0.2,0.1l-0.8,0.2c-0.2,0-0.3,0-0.4-0.1c-0.1-0.1-0.3-0.1-0.5-0.1H4.2c-0.2,0-0.3,0.2-0.2,0.4c0,0,0,0,0,0v0.3
	c0.1,0.1,0.1,0.3,0,0.4c-0.1,0.1-0.1,0.3,0,0.4l0.1,0.1c0.1,0.2,0.3,0.3,0.4,0.4c0.1,0.1,0.3,0.3,0.4,0.4l0.2,0.4
	c0.1,0.2,0.3,0.3,0.5,0.3c0.2,0,0.4,0.1,0.6,0.2l0.4,0.4c0.1,0.1,0.3,0.1,0.4,0l0,0c0.1,0,0.1,0,0.1,0.1c0,0,0,0,0,0V25
	c0,0.2,0.1,0.3,0.3,0.4l0.6,0.1c0.2,0.1,0.4,0.1,0.6,0.3h0.1c0.1,0,0.2-0.1,0.2-0.2c0,0,0,0,0,0v-0.5c0-0.1,0.1-0.3,0.2-0.3l0,0
	c0,0,0.1,0.1,0.1,0.1v0.2c0,0.2,0.1,0.3,0.2,0.5c0.1,0.1,0.3,0.2,0.5,0.1c0.2-0.1,0.3-0.1,0.5-0.1h0.5c0.2,0,0.5,0,0.7-0.1
	c0.2-0.1,0.4-0.2,0.6-0.3h0.1l0.4-0.4c0.1-0.1,0.3-0.2,0.5-0.2h0.5c0.3,0,0.5-0.3,0.5-0.5v-0.3c0-0.2,0.1-0.3,0.2-0.5
	c0.1-0.1,0.3-0.2,0.4-0.3l0.2-0.1c0.2-0.1,0.4-0.3,0.5-0.5l0.1-0.3c0.1-0.3,0.3-0.6,0.6-0.8l0,0c0.2-0.2,0.2-0.4,0.1-0.6v-0.1
	c-0.1-0.2-0.1-0.4,0-0.5c0.1-0.2,0.1-0.4,0.2-0.5l0.1-0.2c0.1-0.1,0.1-0.3,0-0.4c-0.1-0.1-0.1-0.2-0.1-0.4v-0.2v-0.5
	c0-0.1,0-0.3,0-0.4v-0.2H16.2z M14.3,16.5L14.3,16.5c0-0.1-0.1-0.2-0.2-0.2c0,0,0,0,0,0h-0.3c-0.1,0-0.3,0-0.4,0h-0.6
	c-0.3,0-0.6,0-0.9-0.1L11.5,16l-0.3-0.1l-0.6-0.3c-0.3-0.1-0.6-0.3-0.7-0.6v-0.1c-0.1-0.2-0.3-0.4-0.6-0.3c0,0,0,0-0.1,0
	c-0.2,0-0.5,0-0.7-0.1l-0.2-0.1C8.2,14.3,8,14,8,13.7v-0.4c0-0.2-0.2-0.3-0.3-0.4c-0.2-0.1-0.4-0.2-0.5-0.3l0,0
	c-0.2-0.1-0.4-0.4-0.6-0.6v-0.1c-0.1-0.2-0.1-0.5,0-0.7v-0.1c0.1-0.2,0.1-0.3,0.1-0.5c0-0.2-0.1-0.3-0.2-0.4L6.2,9.9
	C6,9.8,5.9,9.5,5.8,9.3c0-0.3,0-0.6,0-0.9V8.3C5.8,8.1,5.7,8,5.6,8l0,0C5.4,8,5.2,8.1,5.2,8.3C5.1,8.5,5,8.6,4.9,8.8l0,0L4.6,9
	L4.5,9.2C4.3,9.3,4.3,9.5,4.2,9.7C4.2,9.9,4.1,10.2,4,10.4l0,0c-0.1,0.2-0.2,0.3-0.3,0.4c-0.1,0.1-0.2,0.3-0.2,0.4V12
	c0,0.3,0,0.5-0.1,0.8v0.1c-0.1,0.2,0,0.3,0.1,0.4L4,13.5l0,0c0,0,0,0,0,0.1s0,0.1,0,0.1H3.8c-0.1,0-0.1,0.1-0.2,0.2v0.1l0,0
	l-0.1,0.8c0,0.1,0,0.2,0,0.4c0,0.1,0.1,0.2,0.2,0.2L4,15.6c0.1,0.1,0.3,0.2,0.4,0.3l0.1,0.1c0,0.1,0.1,0.1,0.2,0.1l0,0
	c0.1,0.1,0.2,0.2,0.2,0.3L5,17c0,0.2,0.1,0.3,0.3,0.3l0.2,0.1l0,0l0.3,0.1c0.2,0.1,0.4,0.2,0.6,0.4c0.2,0.1,0.3,0.3,0.5,0.5l0,0
	c0.1,0.1,0.3,0.2,0.4,0.2c0.3,0,0.5,0.1,0.8,0.2h0.2c0.2,0,0.3,0,0.5,0.1C8.8,18.9,9,19,9.1,19l0,0c0.1,0.1,0.3,0.1,0.5,0
	c0.1-0.1,0.3-0.2,0.5-0.2h0.6c0.1,0,0.3,0,0.3-0.1l0,0l0.2-0.2v-0.1c0.1-0.1,0.3-0.2,0.4-0.2h0.6c0.2,0,0.3-0.1,0.4-0.3
	c0.1-0.1,0.2-0.2,0.4-0.3h0.3c0.1,0,0.2-0.1,0.2-0.2c0-0.1,0.1-0.2,0.2-0.3L14,17C14.1,16.8,14.2,16.7,14.3,16.5L14.3,16.5z"/>
</svg>
