<?xml version="1.0" encoding="utf-8"?>
<!-- Generator: Adobe Illustrator 23.0.6, SVG Export Plug-In . SVG Version: 6.00 Build 0)  -->
<svg version="1.1" id="Calque_1" xmlns="http://www.w3.org/2000/svg" xmlns:xlink="http://www.w3.org/1999/xlink" x="0px" y="0px"
	 viewBox="0 0 32 32" style="enable-background:new 0 0 32 32;" xml:space="preserve">
<style type="text/css">
	.st0{fill:#282828;}
</style>
<title>github</title>
<path class="st0" d="M16,0C7.2,0,0,7.1,0,16c0,6.9,4.4,13,10.9,15.2c0.8,0.1,1.1-0.3,1.1-0.8v-3c-4.4,1-5.3-1.9-5.3-1.9
	c-0.3-1-1-1.8-1.8-2.3c-1.4-1,0.1-1,0.1-1c1,0.1,1.9,0.7,2.4,1.6c0.9,1.6,2.9,2.3,4.6,1.4c0,0,0,0,0.1,0c0.1-0.8,0.4-1.6,1-2.1
	c-3.5-0.4-7.3-1.7-7.3-7.9c0-1.6,0.6-3.1,1.7-4.3C7,9.5,7,8,7.6,6.7c0,0,1.3-0.4,4.4,1.6c1.3-0.4,2.6-0.5,4-0.5c1.3,0,2.7,0.2,4,0.5
	c3.1-2.1,4.4-1.6,4.4-1.6C25,8,25,9.5,24.5,10.9c1.1,1.2,1.7,2.7,1.7,4.3c0,6.1-3.7,7.5-7.3,7.9c0.8,0.8,1.2,1.8,1.1,2.9v4.4
	c0,0.4,0.3,0.9,1.1,0.8C29.4,28.4,34,19.3,31.2,11C29,4.4,22.9,0,16,0z"/>
</svg>
