<?xml version="1.0" encoding="utf-8"?>
<!-- Generator: Adobe Illustrator 23.0.6, SVG Export Plug-In . SVG Version: 6.00 Build 0)  -->
<svg version="1.1" id="Calque_1" xmlns="http://www.w3.org/2000/svg" xmlns:xlink="http://www.w3.org/1999/xlink" x="0px" y="0px"
	 viewBox="0 0 32 32" style="enable-background:new 0 0 32 32;" xml:space="preserve">
<style type="text/css">
	.st0{fill:#282828;}
</style>
<title>hackerrank</title>
<g id="comp_160-hackerrank">
	<path class="st0" d="M30,8c-0.9-1.6-12-8-13.8-8C14.4,0,3.3,6.5,2.4,8s-0.9,14.4,0,16s12,8,13.8,8c1.8,0,12.9-6.4,13.8-8
		S31,9.6,30,8z M20,25.9c-0.2,0-2.6-2.2-2.4-2.4c0.1-0.1,0.4-0.1,1.1-0.1c0-1.6,0-4.3,0.1-5.4c0-0.1,0-0.2,0-0.4h-5
		c0,0.4,0,2.3,0.1,4.6c0,0.3-0.1,0.4-0.4,0.4c-0.6,0-1.3,0-1.9,0c-0.3,0-0.4-0.1-0.4-0.4c0.1-2.1,0.2-5.3,0-13.3V8.7
		c-0.6,0-1-0.1-1.1-0.1c-0.2-0.2,2.2-2.4,2.4-2.4c0.2,0,2.6,2.2,2.4,2.4c-0.1,0.1-0.5,0.1-1,0.1v0.2c-0.2,1.6-0.1,5-0.2,6.6h5
		c0-0.3,0-2.2-0.1-5.2c0-0.2,0.1-0.3,0.3-0.3c0.7,0,1.4,0,2.1,0c0.2,0,0.3,0.1,0.3,0.3c-0.2,12,0,11.1,0,13.1c0.6,0,1.1,0.1,1.1,0.1
		C22.5,23.7,20.2,25.9,20,25.9L20,25.9z"/>
</g>
</svg>
