<?xml version="1.0" encoding="utf-8"?>
<!-- Generator: Adobe Illustrator 23.0.6, SVG Export Plug-In . SVG Version: 6.00 Build 0)  -->
<svg version="1.1" id="Calque_1" xmlns="http://www.w3.org/2000/svg" xmlns:xlink="http://www.w3.org/1999/xlink" x="0px" y="0px"
	 viewBox="0 0 32 32" style="enable-background:new 0 0 32 32;" xml:space="preserve">
<style type="text/css">
	.st0{fill:#282828;}
</style>
<title>linkein</title>
<path class="st0" d="M16,0C7.2,0,0,7.2,0,16s7.2,16,16,16s16-7.2,16-16S24.8,0,16,0z M13.3,21.3h-2.7v-8h2.7V21.3z M12,12.2
	c-0.8,0-1.5-0.6-1.5-1.5c0-0.8,0.6-1.5,1.5-1.5c0.8,0,1.5,0.6,1.5,1.5c0,0,0,0,0,0C13.5,11.5,12.8,12.1,12,12.2z M22.7,21.3H20v-3.8
	c0-2.5-2.7-2.3-2.7,0v3.8h-2.7v-8h2.7v1.5c1.2-2.1,5.3-2.3,5.3,2.1V21.3z"/>
</svg>
