<svg id="Calque_1" data-name="Calque 1" xmlns="http://www.w3.org/2000/svg" viewBox="0 0 805.78 240.25"><defs><style>.cls-1{fill:#10618e;}.cls-2{fill:#2d2d2d;}.cls-3{fill:#0b3547;}.cls-4{fill:#b97842;}.cls-5{fill:#cfcfcf;}.cls-6{fill:#353535;}.cls-7{fill:#a8744b;}.cls-8{fill:#090503;}.cls-9{fill:#fefefe;}.cls-10{fill:#242424;}</style></defs><title>logo.svg</title><path class="cls-1" d="M120.34,122.85c-14.68,7.72-30.46,11.79-46.78,14-1.73.24-3.45.45-5.55.72,2.12-5.83,4.13-11.39,6.16-16.95.91-2.49,1.3-5.47,2.94-7.33s4.75-.36,7.21-.64c17.12-2,30.85-9.43,39.94-24.42,3.36-5.54,5.62-11.57,5.56-18.14a18.64,18.64,0,0,0-18.9-18.31c-10.08,0-20.16.1-30.24.14-7.59,0-15.17.07-22.75,0-2,0-2.87.33-3.11,2.59-.56,5.2-1.48,10.37-2.37,15.54-.27,1.56.1,2,1.7,1.95,4.64-.11,9.27,0,14.31,0-3.49,9-6.72,17.36-10,25.7L6.33,232.12l-.4,1-1.24,3.09.46-3.58h0c.89-6.86,2.36-13.63,3.56-20.43,4-22.85,8.17-45.67,12.27-68.51q4.41-24.56,8.82-49.11c.63-3.51.67-3.51-3-3.51-4.67,0-9.34-.06-14,0-1.65,0-2.19-.29-1.79-2.06q7.28-32.49,14.41-65c.3-1.4.9-1.67,2.18-1.67,28.08,0,56.16,0,84.24.07,7,0,14,.63,20.65,3.07,14.54,5.35,22.6,16.16,24.4,31.25C160.26,84.67,146.52,109.07,120.34,122.85Z"/><path class="cls-2" d="M618.54,95.34a145.13,145.13,0,0,0-18.38-21,42.49,42.49,0,0,1,12.64,2.78,37.12,37.12,0,0,1,4.77,2.14c1.53.84,1.86.2,2-1.19a19.71,19.71,0,0,0-1.35-8.8c-4.44-11.37,0-18.53,8.41-26.07.16-.14.45-.12.7-.18-.23,9.72,1,16.37,4,21.64,1.13-9,6.53-15.21,12.28-21.24.45-.15.67-.06.48.46-2.1,4.86-2.81,8.95-2,12.85,10.13-15.05,23.88-24.14,42-28a68,68,0,0,0-10.1,18.33c12-7.53,24.23-13.09,38-14.81L691.76,50.08c.72.53,1.24-.08,1.74-.31,14.3-6.5,29.26-8.49,44.82-7.05,9,.84,17.9,2.69,26.87,4.42-6.42,1.75-12.86,3.35-19.25,7,10.8.59,20.63,2.89,30.39,5.78-4.66,1.18-9.21,2.39-13.52,5.43a353.82,353.82,0,0,0,39.47,13.68c-7.88,9.39-18.46,14-29.65,19L790,101.34l-17.35,8.41,14.91,4.3-21.36,12.26,10.89,1.28c-.21,1-1.13.94-1.71,1.23a30.29,30.29,0,0,0-9.84,7.93,4.46,4.46,0,0,0-1.14,3.17,1.24,1.24,0,0,1-1-.95c-1.23-3.39-3.81-5.59-6.6-7.62a212.92,212.92,0,0,0-43.54-24.21,306.13,306.13,0,0,0-64.61-18.83c-7.65-1.34-15.25-1.52-22.5,2a18.06,18.06,0,0,0-5.92,4.09C619.75,94.86,619.35,95.47,618.54,95.34Z"/><path class="cls-3" d="M219.43,42.78c-6.51,4.11-10.4,9.9-11.25,17.61A43.6,43.6,0,0,0,209.24,75c3.1,13.47,10.16,24.79,18.6,35.5,12.36,15.69,27.06,28.89,42.57,41.32,8.45,6.77,16.83,13.62,26.52,18.61a22.46,22.46,0,0,0,5.46,2.1l-31.51-57C268,120,265.4,124,262.76,128.12c-2.23,3.46-2.27,3.49-5.07.6-5.81-6-11.58-12-17.39-17.94-.77-.79-1.18-1.35-.5-2.52q14.82-25.32,29.55-50.7a5.31,5.31,0,0,1,.45-.56l95.57,161.48a134.93,134.93,0,0,1-17.4-2.42c-34-6.53-63.74-22.25-91.38-42.42a255.61,255.61,0,0,1-39.52-35.86c-.54-.6-1.48-.85-1.57-1.83-2.69-4.23-4.47-8.9-6.41-13.49-5.26-12.43-9.85-25.07-12-38.47-1.35-8.46-1.19-16.73,2.88-24.56,3.86-7.43,9.84-12.65,17.12-16.53A2,2,0,0,1,219.43,42.78Z"/><path class="cls-1" d="M464.38,5.88,505,110.54l21.35,55c1.07,2.75,1.07,2.76-1.9,2.79-3.66,0-7.33.14-11,0-1.7,0-2.32.3-2,2.16.94,5.49,1.74,11,2.53,16.51.15,1.06.57,1.47,1.59,1.37a10.43,10.43,0,0,1,1.25,0c25.49,0,51,.13,76.47.11,1.93,0,2.71.48,3.15,2.38,1.92,8.34,4,16.66,6.07,25,.39,1.56.32,2.1-1.53,2.1q-57.11-.09-114.22,0c-1.58,0-2-.47-2.39-2q-7-32.15-14.22-64.26c-.16-.72-.21-1.46-.33-2.36,6,0,11.79-.05,17.61,0,1.67,0,2-.32,1.66-2-4.33-23.8-8.55-47.63-12.82-71.44q-6.09-34-12.22-68a14.71,14.71,0,0,1-.1-1.49C463.68,5.9,464,5.84,464.38,5.88Z"/><path class="cls-3" d="M752,170.37c.53.75.11,1.47-.17,2.13-9.35,21.94-25.07,37.44-48.38,42.88-26.22,6.12-49.91-.44-69.47-19.46-8.29-8.06-13.45-18.11-16.06-29.42-1.26-2.31-1.11-2.82,1.31-4.35a88.13,88.13,0,0,1,27-10.91,111.61,111.61,0,0,1,32-3c17.9,1,35.39,4.17,52.07,11,2.19,1,4.43,1.86,6.68,2.7,5.2,1.64,9.66,4.72,14.36,7.35C751.73,169.49,752.24,169.71,752,170.37Z"/><path class="cls-1" d="M752,170.37c-3.69-2.09-7.42-4.13-11.06-6.32-1.27-.76-2.92-.48-4-1.67-2-.95-3.93-1.84-5.93-2.69a402.37,402.37,0,0,0-50.59-21.22c-12.22-4.14-24.66-7.52-37.21-10.52-1.13-.27-2.27-.53-3.39-.85a14,14,0,0,1-1.56-.34,144.07,144.07,0,0,0-14.37-2.94c-2.45-.62-5.12-.12-7.43-1.46-.17-4.23-.9-8.47-.11-12.66.6-3.17,1.42-6.27,1.16-9.55a10.1,10.1,0,0,1,1-4.81c3.65-4.75,8.77-6.91,14.42-8,8.53-1.62,16.84.25,25.09,2,22.15,4.8,43.71,11.42,64.28,21a214.69,214.69,0,0,1,34.38,20c3.42,2.46,6.51,5.15,7.68,9.42a8.29,8.29,0,0,1-1.89,6.5,3.38,3.38,0,0,0-.7,3.65c.8,2.6.34,5.09-1.91,6.7-2.6,1.86-3.09,4.19-2.86,7.15C757.32,167.65,755.57,169.66,752,170.37Z"/><path class="cls-1" d="M219.43,42.78c-11.67,5.15-19.7,13.4-21.87,26.35-1.63,9.67.69,19,3.22,28.24,3.3,12.06,8.18,23.53,13.33,34.88a10.44,10.44,0,0,1,1.39,3.7c-15.42-17.15-29.16-35.26-33.76-58.66-1.44-7.32-2.65-14.72-.93-22,3-12.83,10.85-21.91,23.13-26.82,9.12-3.66,18.72-4.35,28.45-3.75,19.24,1.19,37.14,7.36,54.44,15.24,31.81,14.48,60.84,33.15,85.35,58.39,10.62,10.94,20.06,22.92,29.94,34.51.58.68,1.18,1.34,2.15,2.43l2.48-18.49c15.15,21.48,29.77,42.76,43.25,65.52-11.49-11.48-22.49-22.49-33.48-33.49l-1,.59c-.54,5.85-1.08,11.7-1.68,18.14-2.35-4.55-4.32-8.63-6.53-12.59-28.89-51.81-71.43-87.52-127.2-107.52-9.77-3.5-19.65-6.77-30-8.3C239.61,37.55,229.23,37.91,219.43,42.78Z"/><path class="cls-4" d="M640,126.5l.54.11h0c.59.11,1.18.26,1.76.4l2,.49,4.08,1q4.07,1,8.13,2.12c2.7.73,5.4,1.48,8.08,2.26s5.37,1.58,8,2.42,5.34,1.69,8,2.58,5.29,1.81,7.93,2.77,5.26,1.94,7.87,3q2.72,1.06,5.43,2.18a317.69,317.69,0,0,1,29.54,13.58c0,.9-.46.76-1,.47a165,165,0,0,0-29.4-8.23c-6.12-1-12.25-1.92-18.45-2.36a119.49,119.49,0,0,0-12.68-.37c-15.4.55-30.26,3.5-44.18,10.36-2.08,1-4,2.47-6.08,3.39-1.94.84-2.4,2-1.78,3.86-6.59-2.78-9.52-9.75-7.24-17.33a15.14,15.14,0,0,1,3.72-6.7,5.55,5.55,0,0,0,1.7-4.67c-.09-2,0-4,.07-6,.36-3.16,2.38-5.38,4.45-7.51a3.36,3.36,0,0,1,3.38-1.08c.31.08.68.08,1,.13l1,.14q1.05.15,2.1.33c1.4.23,2.78.5,4.17.8C634.9,125.19,637.42,126,640,126.5Z"/><path class="cls-3" d="M185.78,201.34,198,180.82c5.67-9.49,11.39-18.95,17-28.5,1.16-2,1.85-2.11,3.52-.49,6.23,6,12.58,11.87,18.94,17.73,1.07,1,1.2,1.72.42,2.95q-8.71,13.68-17.32,27.42c-.49.79-.93,1.44-2.08,1.44C207.75,201.32,197,201.34,185.78,201.34Z"/><path class="cls-3" d="M369.81,201.78c7.1.27,13.82.56,20.52-.32,15-2,24.65-11.39,26.89-26.61,1.89,5.33,1.3,10.43.28,15.52-3.22,16-19.57,29.6-35.48,29.49-1.13,0-2-.08-2.62-1.27C376.35,213.09,373.18,207.65,369.81,201.78Z"/><path class="cls-2" d="M624,123.22c-3.2.59-4.53,3.28-6.19,5.57a25.07,25.07,0,0,0-1.64,3c.1-3.15.21-6.3.31-9.45A32.25,32.25,0,0,1,624,123.22Z"/><path class="cls-5" d="M464.38,5.88l-.42.53a1.91,1.91,0,0,1-.17-2.23Z"/><path class="cls-6" d="M644,43.85l-.48-.46c.17-.47.6-1.11.93-.85C645,43,644.39,43.48,644,43.85Z"/><path class="cls-7" d="M730.49,159.85a1.09,1.09,0,0,0,1-.47c1.88.91,3.93,1.49,5.47,3A23.54,23.54,0,0,1,730.49,159.85Z"/><path class="cls-8" d="M643.85,127.38c-3.42.35-11.48,3.05-17.48,6.43,2.48-4.9,11.08-7.81,11.81-7.72C638.69,126.18,643.37,127.26,643.85,127.38Z"/><path class="cls-9" d="M650.44,133.83c4.89-.78,9.76-.15,15,.16-3.36,7.3-8.73,11.74-16.26,13.29-8.17,1.68-17.24-2.16-21.44-8.78,4.08-1.75,8.39-2.58,12.66-3.59a5.26,5.26,0,0,1,1.28,1.78,4.26,4.26,0,0,0,4.45,2,3.88,3.88,0,0,0,3.39-2.82A5.74,5.74,0,0,1,650.44,133.83Z"/><path class="cls-10" d="M650.44,133.83c0,3.32-1.61,5.36-4.33,5.59-3.14.27-5-1.19-5.68-4.51A43.85,43.85,0,0,1,650.44,133.83Z"/></svg>