<svg id="Calque_1" data-name="Calque 1" xmlns="http://www.w3.org/2000/svg" viewBox="0 0 2225.23 2230.64"><defs><style>.cls-1,.cls-2,.cls-3,.cls-4,.cls-5{fill:#282828;}.cls-1{stroke:#6bb94e;}.cls-1,.cls-2,.cls-3,.cls-4{stroke-miterlimit:10;}.cls-2{stroke:#ed7540;}.cls-3{stroke:#e9565f;}.cls-4{stroke:#e9589f;}</style></defs><title>sololearn</title><path class="cls-1" d="M699.9,98.8S102.6,798.2,835.6,1577.3c0,0-643.4-214-713.4-713.4,0,0-103.5-509.1,577.7-765.1Z" transform="translate(-0.02 0.03)"/><path class="cls-2" d="M639.7,1119.9s83.9-1021.1,1156.8-891c0,0-465.8-381.9-895.2-158.1-1.4,0-611.3,331.5-261.6,1049.1Z" transform="translate(-0.02 0.03)"/><path class="cls-3" d="M891.5,668.1s261.6-437.8,923.2-345.5c0,0,479.8,144.1,401.4,979.1-1.4,0-267.2-1011.3-1324.6-633.6Z" transform="translate(-0.02 0.03)"/><path class="cls-4" d="M1431.4,644.3s815.5,797.3,0,1566.6c0,0,499.4-132.9,688.2-594.5,0,0,193-686.7-688.2-972.1Z" transform="translate(-0.02 0.03)"/><path class="cls-5" d="M1693,1189.8S1329.3,2224.9,350.2,1924.1c0,0,292.3,398.6,812.7,286.7-.1.1,661.5-50.2,530.1-1021Z" transform="translate(-0.02 0.03)"/><path class="cls-5" d="M35.5,896.1s226.6,937.2,1314.8,720.4c0,0-384.7,468.6-1000.1,230.8,0-.1-482.6-244.8-314.7-951.2Z" transform="translate(-0.02 0.03)"/></svg>