<svg id="Calque_1" data-name="Calque 1" xmlns="http://www.w3.org/2000/svg" viewBox="0 0 32 32"><defs><style>.cls-1{fill:#282828;}</style></defs><title>sololearn</title><path class="cls-1" d="M10.06,1.41S1.47,11.45,12,22.63c0,0-9.25-3.07-10.26-10.24,0,0-1.49-7.3,8.31-11Z"/><path class="cls-1" d="M9.2,16.07S10.4,1.41,25.84,3.28c0,0-6.7-5.48-12.88-2.27,0,0-8.79,4.76-3.76,15.06Z"/><path class="cls-1" d="M12.82,9.58S16.58,3.3,26.1,4.63c0,0,6.9,2.06,5.77,14.05,0,0-3.84-14.52-19-9.1Z"/><path class="cls-1" d="M20.58,9.24s11.73,11.44,0,22.48c0,0,7.19-1.91,9.9-8.53,0,0,2.78-9.85-9.9-13.95Z"/><path class="cls-1" d="M24.35,17.07S19.12,31.92,5,27.61a11.81,11.81,0,0,0,11.69,4.11s9.52-.72,7.63-14.65Z"/><path class="cls-1" d="M.51,12.86S3.76,26.3,19.42,23.19A12.83,12.83,0,0,1,5,26.5S-1.91,23,.51,12.86Z"/></svg>