<?xml version="1.0" encoding="utf-8"?>
<!-- Generator: Adobe Illustrator 23.0.6, SVG Export Plug-In . SVG Version: 6.00 Build 0)  -->
<svg version="1.1" id="Capa_1" xmlns="http://www.w3.org/2000/svg" xmlns:xlink="http://www.w3.org/1999/xlink" x="0px" y="0px"
	 viewBox="0 0 512 512" style="enable-background:new 0 0 512 512;" xml:space="preserve">
<style type="text/css">
	.st0{fill:#FF4800;}
</style>
<g>
	<g id="Down">
		<g>
			<path class="st0" d="M256.3-0.3c-141.4,0-256,114.6-256,256s114.6,256,256,256s256-114.6,256-256S397.7-0.3,256.3-0.3z
				 M256.3,463.7c-114.7,0-208-93.3-208-208s93.3-208,208-208s208,93.3,208,208S371,463.7,256.3,463.7z M368.3,312
				c0-6.3-2.4-11.9-6.4-16.2l0.1,0l-88-96c-4.5-4.9-10.9-7.8-17.7-7.8c-6.7,0-13.1,2.8-17.7,7.8l-88,96l0.1,0
				c-3.9,4.3-6.4,9.9-6.4,16.2c0,13.2,10.8,24,24,24c7,0,13.2-3,17.6-7.8l0.1,0l70.3-76.7l70.3,76.7l0.1,0
				c4.4,4.8,10.6,7.8,17.6,7.8C357.5,336,368.3,325.3,368.3,312z"/>
		</g>
	</g>
</g>
</svg>
