<?xml version="1.0" encoding="utf-8"?>
<!-- Generator: Adobe Illustrator 23.0.6, SVG Export Plug-In . SVG Version: 6.00 Build 0)  -->
<svg version="1.1" id="Calque_1" xmlns="http://www.w3.org/2000/svg" xmlns:xlink="http://www.w3.org/1999/xlink" x="0px" y="0px"
	 viewBox="0 0 32 32" style="enable-background:new 0 0 32 32;" xml:space="preserve">
<style type="text/css">
	.st0{fill:#282828;}
</style>
<title>youtube</title>
<path class="st0" d="M14.6,18.6h0.9v5.1h-0.9v-0.6c-0.2,0.2-0.3,0.3-0.5,0.5c-0.5,0.3-1.2,0.3-1.2-0.7v-4.2h0.9v3.9
	c0,0.2,0,0.3,0.2,0.3c0.2,0,0.4-0.2,0.6-0.4C14.6,22.4,14.6,18.6,14.6,18.6z M15.4,13c0.3,0,0.4-0.2,0.4-0.5V10
	c0-0.3-0.1-0.5-0.4-0.5S15,9.7,15,10v2.5C15,12.8,15.1,13,15.4,13z M12.8,16.8H9.6v1h1.1v5.9h1.1v-5.9h1.1V16.8z M19.1,19.8v2.8
	c0,0.6-0.2,1.1-0.9,1.1c-0.4,0-0.7-0.2-0.9-0.5v0.4h-0.9v-6.9h0.9V19c0.2-0.3,0.5-0.5,0.8-0.5C18.9,18.5,19.1,19.1,19.1,19.8z
	 M18.1,19.8c0-0.1,0-0.3-0.1-0.4c-0.1-0.1-0.3-0.2-0.5-0.1l-0.2,0.2v3.2l0.2,0.2c0.1,0.1,0.3,0.1,0.5,0c0.1-0.1,0.1-0.2,0.1-0.3
	V19.8L18.1,19.8z M32,16c0,8.8-7.2,16-16,16S0,24.8,0,16S7.2,0,16,0S32,7.2,32,16z M17.7,13c0,0.5,0.2,0.9,0.7,0.9
	c0.5,0,0.9-0.3,1.1-0.7v0.6h1V8.5h-1v4c-0.1,0.1-0.4,0.4-0.6,0.4c-0.2,0-0.3-0.1-0.3-0.3V8.6h-1V13z M14,10v2.7
	c-0.1,0.7,0.5,1.4,1.2,1.4c0.1,0,0.1,0,0.2,0c0.7,0.1,1.4-0.5,1.4-1.2c0-0.1,0-0.1,0-0.2V10c0.1-0.7-0.5-1.4-1.2-1.4
	c-0.1,0-0.1,0-0.2,0C14.7,8.4,14,9,14,9.7C13.9,9.8,13.9,9.9,14,10z M10.3,6.7l1.3,4.3v2.9h1.1V11L14,6.7h-1.2l-0.7,2.9l-0.8-2.9
	H10.3z M23.8,20.3c0-3.5-0.3-4.8-2.5-5s-8.6-0.1-10.7,0s-2.4,1.5-2.4,5c0,3.5,0.3,4.8,2.5,4.9s8.6,0.1,10.7,0S23.8,23.8,23.8,20.3z
	 M22.7,20v1.3h-1.9v1c0,0.4,0,0.7,0.4,0.7s0.4-0.3,0.4-0.7v-0.4h1v0.4c0,1-0.4,1.6-1.4,1.6s-1.3-0.7-1.3-1.6V20
	c-0.1-0.7,0.4-1.4,1.2-1.5c0.1,0,0.2,0,0.3,0C22.2,18.5,22.7,19,22.7,20z M21.7,20c0-0.3,0-0.6-0.4-0.6s-0.4,0.3-0.4,0.6v0.5h0.8V20
	z"/>
</svg>
